<svg xmlns="http://www.w3.org/2000/svg" width="64" height="64" viewBox="0 0 64 64" fill="none">
  <defs>
    <radialGradient id="pp-fav-planet" cx="36%" cy="30%" r="65%">
      <stop offset="0%" stop-color="#93C5FD"/>
      <stop offset="48%" stop-color="#2563EB"/>
      <stop offset="100%" stop-color="#1E3A8A"/>
    </radialGradient>
    <linearGradient id="pp-fav-ring" x1="2" y1="38" x2="62" y2="38" gradientUnits="userSpaceOnUse">
      <stop offset="0%" stop-color="#60A5FA"/>
      <stop offset="100%" stop-color="#38BDF8"/>
    </linearGradient>
    <clipPath id="pp-fav-clip">
      <rect x="0" y="37" width="64" height="27"/>
    </clipPath>
  </defs>
  <ellipse cx="30" cy="38" rx="27" ry="9" stroke="url(#pp-fav-ring)" stroke-width="5" opacity="0.4" transform="rotate(-18 30 38)"/>
  <circle cx="30" cy="38" r="20" fill="url(#pp-fav-planet)"/>
  <ellipse cx="23" cy="31" rx="8" ry="5" fill="white" opacity="0.18" transform="rotate(-20 23 31)"/>
  <ellipse cx="30" cy="38" rx="27" ry="9" stroke="url(#pp-fav-ring)" stroke-width="5" clip-path="url(#pp-fav-clip)" transform="rotate(-18 30 38)"/>
  <path d="M42,2 L57,2 Q62,2 62,7 L62,16 Q62,21 57,21 L51,21 L45,27 L44,21 L42,21 Q37,21 37,16 L37,7 Q37,2 42,2 Z" fill="white" stroke="#60A5FA" stroke-width="2"/>
  <circle cx="44.5" cy="11.5" r="2.2" fill="#2563EB"/>
  <circle cx="49.5" cy="11.5" r="2.2" fill="#2563EB"/>
  <circle cx="54.5" cy="11.5" r="2.2" fill="#2563EB"/>
</svg>
