<svg xmlns="http://www.w3.org/2000/svg" width="80" height="80" viewBox="0 0 80 80" fill="none">
  <defs>
    <radialGradient id="pp-p-planet" cx="36%" cy="30%" r="65%">
      <stop offset="0%" stop-color="#93C5FD"/>
      <stop offset="48%" stop-color="#2563EB"/>
      <stop offset="100%" stop-color="#1E3A8A"/>
    </radialGradient>
    <linearGradient id="pp-p-ring" x1="2" y1="50" x2="60" y2="50" gradientUnits="userSpaceOnUse">
      <stop offset="0%" stop-color="#818CF8"/>
      <stop offset="100%" stop-color="#38BDF8"/>
    </linearGradient>
    <clipPath id="pp-p-clip">
      <rect x="0" y="49" width="80" height="31"/>
    </clipPath>
  </defs>

  <!-- Back ring -->
  <ellipse cx="30" cy="51" rx="29" ry="10" stroke="url(#pp-p-ring)" stroke-width="5.5" opacity="0.4" transform="rotate(-18 30 51)"/>

  <!-- Planet -->
  <circle cx="30" cy="51" r="21" fill="url(#pp-p-planet)"/>

  <!-- Planet sheen -->
  <ellipse cx="23" cy="43" rx="8.5" ry="5.5" fill="white" opacity="0.18" transform="rotate(-20 23 43)"/>

  <!-- Front ring -->
  <ellipse cx="30" cy="51" rx="29" ry="10" stroke="url(#pp-p-ring)" stroke-width="5.5" clip-path="url(#pp-p-clip)" transform="rotate(-18 30 51)"/>

  <!-- Speech bubble -->
  <path d="M46,5 L69,5 Q76,5 76,12 L76,27 Q76,34 69,34 L58,34 L50,43 L49,34 L46,34 Q39,34 39,27 L39,12 Q39,5 46,5 Z" fill="white" stroke="#60A5FA" stroke-width="2.5"/>

  <!-- Typing dots -->
  <circle cx="50" cy="19.5" r="3" fill="#2563EB"/>
  <circle cx="57.5" cy="19.5" r="3" fill="#2563EB"/>
  <circle cx="65" cy="19.5" r="3" fill="#2563EB"/>
</svg>
